<?xml version="1.0" encoding="UTF-8" standalone="no"?>
<!-- Created with Inkscape (http://www.inkscape.org/) -->

<svg
   width="210mm"
   height="297mm"
   viewBox="0 0 210 297"
   version="1.1"
   id="svg626"
   sodipodi:docname="card.svg"
   inkscape:version="1.2.2 (732a01da63, 2022-12-09)"
   xmlns:inkscape="http://www.inkscape.org/namespaces/inkscape"
   xmlns:sodipodi="http://sodipodi.sourceforge.net/DTD/sodipodi-0.dtd"
   xmlns="http://www.w3.org/2000/svg"
   xmlns:svg="http://www.w3.org/2000/svg">
  <sodipodi:namedview
     id="namedview628"
     pagecolor="#ffffff"
     bordercolor="#000000"
     borderopacity="0.25"
     inkscape:showpageshadow="2"
     inkscape:pageopacity="0.0"
     inkscape:pagecheckerboard="0"
     inkscape:deskcolor="#d1d1d1"
     inkscape:document-units="mm"
     showgrid="false"
     inkscape:zoom="0.914906"
     inkscape:cx="172.69534"
     inkscape:cy="473.27266"
     inkscape:window-width="2560"
     inkscape:window-height="1369"
     inkscape:window-x="-8"
     inkscape:window-y="-8"
     inkscape:window-maximized="1"
     inkscape:current-layer="layer1" />
  <defs
     id="defs623" />
  <g
     inkscape:label="Layer 1"
     inkscape:groupmode="layer"
     id="layer1">
    <rect
       style="fill:#4d4d4d;stroke-width:0.370674;stroke:#000000;stroke-opacity:1"
       id="rect247"
       width="118.85784"
       height="171.49075"
       x="30.654327"
       y="6.0540056"
       ry="14.219083" />
    <g
       class=""
       transform="matrix(0.34853766,0,0,0.39421588,107.20423,-13.456685)"
       id="g528"
       style="fill:#cccccc;stroke:#000000;stroke-opacity:1">
      <path
         d="m -51.414465,132.85713 c -7.829367,0.18178 -15.395364,4.48391 -19.596514,12.03219 -1.81756,3.26434 -3.310157,9.83487 -4.530359,17.57595 -19.318809,4.6365 -40.284732,26.56856 -49.580672,52.00346 15.65873,6.08689 31.292504,7.8127 44.768359,6.29952 -31.495339,54.38754 -26.251869,114.96497 25.33858,114.97323 4.810719,0 9.209926,-0.50127 13.207708,-1.48068 30.697275,13.65004 53.517926,7.70968 65.210205,-7.40231 11.901486,-15.38136 12.184501,-38.48232 1.759682,-56.42789 -9.543915,-16.42852 -14.133745,-29.3575 -13.821526,-38.54181 0.310626,-9.18486 4.512306,-15.5009 15.8621,-21.41426 l -4.446996,-9.19368 c -13.3181516,6.9385 -20.9037966,17.43548 -21.3386726,30.24548 -0.43540698,12.81055 5.26418,27.06322 15.2328826,44.22327 8.403891,14.4664 7.825649,33.26854 -0.995596,44.66946 -7.6674156,9.91088 -21.6296526,15.56314 -44.254371,8.02202 28.21970142,-19.43672 21.9774484,-74.1746 -10.569777,-121.29038 4.298851,1.43497 7.959458,2.32459 10.420571,2.32459 12.80469,-0.002 23.1971194,-10.76525 23.1971194,-24.04843 0,-13.0755 -10.0727764,-23.70138 -22.6002934,-24.03079 1.784108,-9.76656 -2.417041,-20.07129 -11.183595,-25.32254 -3.811406,-2.28216 -7.978573,-3.3139 -12.079897,-3.21861 z M -126.03371,318.3038 c -26.63153,7.50587 -43.84074,18.61595 -43.84074,30.95001 0,22.59473 56.57481,40.96941 126.225633,40.96941 69.650828,0 126.208644,-18.37413 126.208644,-40.96886 0,-12.28944 -17.057881,-23.44414 -43.524802,-30.95056 9.149924,4.89044 14.619065,10.59889 14.619065,16.76565 0,17.69878 -43.7069256,32.25937 -97.302907,32.25937 -53.595981,0 -96.987503,-14.56169 -96.987503,-32.25937 0,-6.19926 5.35923,-11.85869 14.60207,-16.7662 z"
         fill="#ffffff"
         fill-opacity="1"
         id="path526"
         style="fill:#cccccc;stroke-width:0.540826;stroke:#000000;stroke-opacity:1" />
    </g>
  </g>
</svg>
