<?xml version="1.0" encoding="UTF-8" standalone="no"?>
<!DOCTYPE svg PUBLIC "-//W3C//DTD SVG 1.1//EN" "http://www.w3.org/Graphics/SVG/1.1/DTD/svg11.dtd">
<svg width="100%" height="100%" viewBox="0 0 288 289" version="1.1" xmlns="http://www.w3.org/2000/svg" xmlns:xlink="http://www.w3.org/1999/xlink" xml:space="preserve" xmlns:serif="http://www.serif.com/" style="fill-rule:evenodd;clip-rule:evenodd;stroke-linejoin:bevel;stroke-miterlimit:1.5;">
    <g transform="matrix(1,0,0,1,-1452,-1056)">
        <g transform="matrix(1,0,0,1,-142.143,788.118)">
            <g transform="matrix(1,0,0,1,54.616,127.944)">
                <g transform="matrix(1.47684,0,0,1.47684,-1109.15,-623.25)">
                    <g transform="matrix(0.999382,0,0,1,172.617,-28.4392)">
                        <rect x="1719.52" y="547.179" width="95.824" height="95.824" style="fill:white;stroke:black;stroke-width:2.82px;"/>
                    </g>
                    <g transform="matrix(1.1592,0,0,1.1592,-113.692,-124.172)">
                        <circle cx="1771.68" cy="597.06" r="31.109" style="stroke:white;stroke-width:2.43px;"/>
                    </g>
                    <g transform="matrix(0.461982,-0.461982,0.461982,0.461982,892.737,1096.19)">
                        <path d="M1753.61,513.368L1724.65,513.368C1720.08,513.368 1715.7,515.181 1712.48,518.41C1709.25,521.638 1707.43,526.016 1707.43,530.581L1707.43,559.541L1736.39,559.541C1740.96,559.541 1745.34,557.727 1748.57,554.499C1751.79,551.271 1753.61,546.893 1753.61,542.328L1753.61,513.368Z" style="stroke:white;stroke-width:4.32px;"/>
                    </g>
                    <g transform="matrix(0.461982,-0.461982,0.461982,0.461982,892.737,1140.39)">
                        <path d="M1753.61,513.368L1724.65,513.368C1720.08,513.368 1715.7,515.181 1712.48,518.41C1709.25,521.638 1707.43,526.016 1707.43,530.581L1707.43,559.541L1736.39,559.541C1740.96,559.541 1745.34,557.727 1748.57,554.499C1751.79,551.271 1753.61,546.893 1753.61,542.328L1753.61,513.368Z" style="stroke:white;stroke-width:4.32px;"/>
                    </g>
                    <g transform="matrix(0.461982,0.461982,-0.461982,0.461982,1410.5,-480.649)">
                        <path d="M1753.61,513.368L1724.65,513.368C1720.08,513.368 1715.7,515.181 1712.48,518.41C1709.25,521.638 1707.43,526.016 1707.43,530.581L1707.43,559.541L1736.39,559.541C1740.96,559.541 1745.34,557.727 1748.57,554.499C1751.79,551.271 1753.61,546.893 1753.61,542.328L1753.61,513.368Z" style="stroke:white;stroke-width:4.32px;"/>
                    </g>
                    <g transform="matrix(0.461982,0.461982,-0.461982,0.461982,1366.3,-480.649)">
                        <path d="M1753.61,513.368L1724.65,513.368C1720.08,513.368 1715.7,515.181 1712.48,518.41C1709.25,521.638 1707.43,526.016 1707.43,530.581L1707.43,559.541L1736.39,559.541C1740.96,559.541 1745.34,557.727 1748.57,554.499C1751.79,551.271 1753.61,546.893 1753.61,542.328L1753.61,513.368Z" style="stroke:white;stroke-width:4.32px;"/>
                    </g>
                    <g transform="matrix(0.5,-0.5,0.5,0.5,688.34,1179.88)">
                        <rect x="1858.33" y="560.315" width="12.677" height="12.677" style="fill:white;stroke:black;stroke-width:3.99px;"/>
                    </g>
                    <g transform="matrix(0.5,-0.5,0.5,0.5,688.34,1250.75)">
                        <rect x="1858.33" y="560.315" width="12.677" height="12.677" style="fill:white;stroke:black;stroke-width:3.99px;"/>
                    </g>
                    <g transform="matrix(0.5,-0.5,0.5,0.5,760.13,1179.88)">
                        <rect x="1858.33" y="560.315" width="12.677" height="12.677" style="fill:white;stroke:black;stroke-width:3.99px;"/>
                    </g>
                    <g transform="matrix(0.5,-0.5,0.5,0.5,760.13,1250.75)">
                        <rect x="1858.33" y="560.315" width="12.677" height="12.677" style="fill:white;stroke:black;stroke-width:3.99px;"/>
                    </g>
                </g>
                <g transform="matrix(1.47684,0,0,1.47684,-542.137,-623.25)">
                    <g transform="matrix(1,0,0,1,-308.398,67.3852)">
                        <rect x="1719.52" y="547.179" width="95.824" height="95.824" style="fill:white;stroke:black;stroke-width:2.82px;"/>
                    </g>
                    <g transform="matrix(1.1592,0,0,1.1592,-594.697,-28.3471)">
                        <circle cx="1771.68" cy="597.06" r="31.109" style="stroke:white;stroke-width:2.43px;"/>
                    </g>
                    <g transform="matrix(0.461982,-0.461982,0.461982,0.461982,411.732,1192.01)">
                        <path d="M1753.61,513.368L1724.65,513.368C1720.08,513.368 1715.7,515.181 1712.48,518.41C1709.25,521.638 1707.43,526.016 1707.43,530.581L1707.43,559.541L1736.39,559.541C1740.96,559.541 1745.34,557.727 1748.57,554.499C1751.79,551.271 1753.61,546.893 1753.61,542.328L1753.61,513.368Z" style="stroke:white;stroke-width:4.32px;"/>
                    </g>
                    <g transform="matrix(0.461982,-0.461982,0.461982,0.461982,411.732,1236.21)">
                        <path d="M1753.61,513.368L1724.65,513.368C1720.08,513.368 1715.7,515.181 1712.48,518.41C1709.25,521.638 1707.43,526.016 1707.43,530.581L1707.43,559.541L1736.39,559.541C1740.96,559.541 1745.34,557.727 1748.57,554.499C1751.79,551.271 1753.61,546.893 1753.61,542.328L1753.61,513.368Z" style="stroke:white;stroke-width:4.32px;"/>
                    </g>
                    <g transform="matrix(0.461982,0.461982,-0.461982,0.461982,929.495,-384.824)">
                        <path d="M1753.61,513.368L1724.65,513.368C1720.08,513.368 1715.7,515.181 1712.48,518.41C1709.25,521.638 1707.43,526.016 1707.43,530.581L1707.43,559.541L1736.39,559.541C1740.96,559.541 1745.34,557.727 1748.57,554.499C1751.79,551.271 1753.61,546.893 1753.61,542.328L1753.61,513.368Z" style="stroke:white;stroke-width:4.32px;"/>
                    </g>
                    <g transform="matrix(0.461982,0.461982,-0.461982,0.461982,885.297,-384.824)">
                        <path d="M1753.61,513.368L1724.65,513.368C1720.08,513.368 1715.7,515.181 1712.48,518.41C1709.25,521.638 1707.43,526.016 1707.43,530.581L1707.43,559.541L1736.39,559.541C1740.96,559.541 1745.34,557.727 1748.57,554.499C1751.79,551.271 1753.61,546.893 1753.61,542.328L1753.61,513.368Z" style="stroke:white;stroke-width:4.32px;"/>
                    </g>
                    <g transform="matrix(0.5,-0.5,0.5,0.5,207.334,1275.71)">
                        <rect x="1858.33" y="560.315" width="12.677" height="12.677" style="fill:white;stroke:black;stroke-width:3.99px;"/>
                    </g>
                    <g transform="matrix(0.5,-0.5,0.5,0.5,207.334,1346.58)">
                        <rect x="1858.33" y="560.315" width="12.677" height="12.677" style="fill:white;stroke:black;stroke-width:3.99px;"/>
                    </g>
                    <g transform="matrix(0.5,-0.5,0.5,0.5,279.125,1275.71)">
                        <rect x="1858.33" y="560.315" width="12.677" height="12.677" style="fill:white;stroke:black;stroke-width:3.99px;"/>
                    </g>
                    <g transform="matrix(0.5,-0.5,0.5,0.5,279.125,1346.58)">
                        <rect x="1858.33" y="560.315" width="12.677" height="12.677" style="fill:white;stroke:black;stroke-width:3.99px;"/>
                    </g>
                </g>
                <g transform="matrix(1.47684,0,0,1.47684,-1250.9,-623.25)">
                    <g transform="matrix(0.999382,0,0,1,172.676,-28.4392)">
                        <rect x="1719.52" y="547.179" width="95.824" height="95.824" style="fill:white;stroke:black;stroke-width:2.82px;"/>
                    </g>
                    <g transform="matrix(0.5,0,0,0.5,997.94,244.88)">
                        <path d="M1967.5,577.203C1957.62,577.203 1949.61,569.188 1949.61,559.315C1949.61,569.188 1941.59,577.203 1931.72,577.203C1941.59,577.203 1949.61,585.218 1949.61,595.091C1949.61,585.218 1957.62,577.203 1967.5,577.203Z" style="fill:white;stroke:black;stroke-width:5.64px;"/>
                    </g>
                    <g transform="matrix(0.5,0,0,0.5,932.3,244.88)">
                        <path d="M1967.5,577.203C1957.62,577.203 1949.61,569.188 1949.61,559.315C1949.61,569.188 1941.59,577.203 1931.72,577.203C1941.59,577.203 1949.61,585.218 1949.61,595.091C1949.61,585.218 1957.62,577.203 1967.5,577.203Z" style="fill:white;stroke:black;stroke-width:5.64px;"/>
                    </g>
                    <g transform="matrix(0.5,0,0,0.5,997.94,311.462)">
                        <path d="M1967.5,577.203C1957.62,577.203 1949.61,569.188 1949.61,559.315C1949.61,569.188 1941.59,577.203 1931.72,577.203C1941.59,577.203 1949.61,585.218 1949.61,595.091C1949.61,585.218 1957.62,577.203 1967.5,577.203Z" style="fill:white;stroke:black;stroke-width:5.64px;"/>
                    </g>
                    <g transform="matrix(0.5,0,0,0.5,932.3,311.462)">
                        <path d="M1967.5,577.203C1957.62,577.203 1949.61,569.188 1949.61,559.315C1949.61,569.188 1941.59,577.203 1931.72,577.203C1941.59,577.203 1949.61,585.218 1949.61,595.091C1949.61,585.218 1957.62,577.203 1967.5,577.203Z" style="fill:white;stroke:black;stroke-width:5.64px;"/>
                    </g>
                    <g transform="matrix(1.1592,0,0,1.1592,-113.692,-126.657)">
                        <circle cx="1771.68" cy="597.06" r="31.109" style="stroke:white;stroke-width:2.43px;"/>
                    </g>
                    <g transform="matrix(1.30394e-16,-0.531872,0.531872,1.30394e-16,1641.99,1472.7)">
                        <path d="M1753.61,513.368L1728.58,513.368C1722.97,513.368 1717.59,515.596 1713.63,519.561C1709.66,523.526 1707.43,528.904 1707.43,534.512L1707.43,559.541L1732.46,559.541C1738.07,559.541 1743.45,557.313 1747.41,553.348C1751.38,549.382 1753.61,544.004 1753.61,538.397L1753.61,513.368Z" style="stroke:white;stroke-width:5.3px;"/>
                    </g>
                    <g transform="matrix(1.30394e-16,-0.531872,0.531872,1.30394e-16,1667.43,1498.15)">
                        <path d="M1753.61,513.368L1728.58,513.368C1722.97,513.368 1717.59,515.596 1713.63,519.561C1709.66,523.526 1707.43,528.904 1707.43,534.512L1707.43,559.541L1732.46,559.541C1738.07,559.541 1743.45,557.313 1747.41,553.348C1751.38,549.382 1753.61,544.004 1753.61,538.397L1753.61,513.368Z" style="stroke:white;stroke-width:5.3px;"/>
                    </g>
                    <g transform="matrix(0.531872,1.30394e-16,-1.30394e-16,0.531872,1032.34,266.965)">
                        <path d="M1753.61,513.368L1728.58,513.368C1722.97,513.368 1717.59,515.596 1713.63,519.561C1709.66,523.526 1707.43,528.904 1707.43,534.512L1707.43,559.541L1732.46,559.541C1738.07,559.541 1743.45,557.313 1747.41,553.348C1751.38,549.382 1753.61,544.004 1753.61,538.397L1753.61,513.368Z" style="stroke:white;stroke-width:5.3px;"/>
                    </g>
                    <g transform="matrix(0.531872,1.30394e-16,-1.30394e-16,0.531872,1006.9,292.407)">
                        <path d="M1753.61,513.368L1728.58,513.368C1722.97,513.368 1717.59,515.596 1713.63,519.561C1709.66,523.526 1707.43,528.904 1707.43,534.512L1707.43,559.541L1732.46,559.541C1738.07,559.541 1743.45,557.313 1747.41,553.348C1751.38,549.382 1753.61,544.004 1753.61,538.397L1753.61,513.368Z" style="stroke:white;stroke-width:5.3px;"/>
                    </g>
                </g>
                <g transform="matrix(1.47684,0,0,1.47684,-400.384,-623.25)">
                    <g transform="matrix(1,0,0,1,-308.398,67.3852)">
                        <rect x="1719.52" y="547.179" width="95.824" height="95.824" style="fill:white;stroke:black;stroke-width:2.82px;"/>
                    </g>
                    <g transform="matrix(0.5,0,0,0.5,516.934,340.705)">
                        <path d="M1967.5,577.203C1957.62,577.203 1949.61,569.188 1949.61,559.315C1949.61,569.188 1941.59,577.203 1931.72,577.203C1941.59,577.203 1949.61,585.218 1949.61,595.091C1949.61,585.218 1957.62,577.203 1967.5,577.203Z" style="fill:white;stroke:black;stroke-width:5.64px;"/>
                    </g>
                    <g transform="matrix(0.5,0,0,0.5,451.295,340.705)">
                        <path d="M1967.5,577.203C1957.62,577.203 1949.61,569.188 1949.61,559.315C1949.61,569.188 1941.59,577.203 1931.72,577.203C1941.59,577.203 1949.61,585.218 1949.61,595.091C1949.61,585.218 1957.62,577.203 1967.5,577.203Z" style="fill:white;stroke:black;stroke-width:5.64px;"/>
                    </g>
                    <g transform="matrix(0.5,0,0,0.5,516.934,407.287)">
                        <path d="M1967.5,577.203C1957.62,577.203 1949.61,569.188 1949.61,559.315C1949.61,569.188 1941.59,577.203 1931.72,577.203C1941.59,577.203 1949.61,585.218 1949.61,595.091C1949.61,585.218 1957.62,577.203 1967.5,577.203Z" style="fill:white;stroke:black;stroke-width:5.64px;"/>
                    </g>
                    <g transform="matrix(0.5,0,0,0.5,451.295,407.287)">
                        <path d="M1967.5,577.203C1957.62,577.203 1949.61,569.188 1949.61,559.315C1949.61,569.188 1941.59,577.203 1931.72,577.203C1941.59,577.203 1949.61,585.218 1949.61,595.091C1949.61,585.218 1957.62,577.203 1967.5,577.203Z" style="fill:white;stroke:black;stroke-width:5.64px;"/>
                    </g>
                    <g transform="matrix(1.1592,0,0,1.1592,-594.697,-30.8325)">
                        <circle cx="1771.68" cy="597.06" r="31.109" style="stroke:white;stroke-width:2.43px;"/>
                    </g>
                    <g transform="matrix(1.30394e-16,-0.531872,0.531872,1.30394e-16,1160.99,1568.53)">
                        <path d="M1753.61,513.368L1728.58,513.368C1722.97,513.368 1717.59,515.596 1713.63,519.561C1709.66,523.526 1707.43,528.904 1707.43,534.512L1707.43,559.541L1732.46,559.541C1738.07,559.541 1743.45,557.313 1747.41,553.348C1751.38,549.382 1753.61,544.004 1753.61,538.397L1753.61,513.368Z" style="stroke:white;stroke-width:5.3px;"/>
                    </g>
                    <g transform="matrix(1.30394e-16,-0.531872,0.531872,1.30394e-16,1186.43,1593.97)">
                        <path d="M1753.61,513.368L1728.58,513.368C1722.97,513.368 1717.59,515.596 1713.63,519.561C1709.66,523.526 1707.43,528.904 1707.43,534.512L1707.43,559.541L1732.46,559.541C1738.07,559.541 1743.45,557.313 1747.41,553.348C1751.38,549.382 1753.61,544.004 1753.61,538.397L1753.61,513.368Z" style="stroke:white;stroke-width:5.3px;"/>
                    </g>
                    <g transform="matrix(0.531872,1.30394e-16,-1.30394e-16,0.531872,551.339,362.789)">
                        <path d="M1753.61,513.368L1728.58,513.368C1722.97,513.368 1717.59,515.596 1713.63,519.561C1709.66,523.526 1707.43,528.904 1707.43,534.512L1707.43,559.541L1732.46,559.541C1738.07,559.541 1743.45,557.313 1747.41,553.348C1751.38,549.382 1753.61,544.004 1753.61,538.397L1753.61,513.368Z" style="stroke:white;stroke-width:5.3px;"/>
                    </g>
                    <g transform="matrix(0.531872,1.30394e-16,-1.30394e-16,0.531872,525.897,388.231)">
                        <path d="M1753.61,513.368L1728.58,513.368C1722.97,513.368 1717.59,515.596 1713.63,519.561C1709.66,523.526 1707.43,528.904 1707.43,534.512L1707.43,559.541L1732.46,559.541C1738.07,559.541 1743.45,557.313 1747.41,553.348C1751.38,549.382 1753.61,544.004 1753.61,538.397L1753.61,513.368Z" style="stroke:white;stroke-width:5.3px;"/>
                    </g>
                </g>
                <g transform="matrix(1.03816,0,0,1.03816,656.217,-884.536)">
                    <g transform="matrix(1.16976,0,0,1,-236.728,-186.474)">
                        <path d="M1127.94,1227.91C1113.38,1227.91 1101.57,1214.1 1101.57,1197.06C1072.65,1197.06 1026.54,1197.06 997.625,1197.06C997.625,1214.1 985.816,1227.91 971.249,1227.91C971.249,1248.21 971.249,1275.56 971.249,1300.59C971.249,1341.25 989.901,1378.8 1020.11,1398.93C1035.99,1409.51 1049.6,1418.58 1049.6,1418.58C1049.6,1418.58 1063.21,1409.51 1079.09,1398.93C1109.29,1378.8 1127.94,1341.25 1127.94,1300.59L1127.94,1227.91Z" style="fill:white;stroke:white;stroke-width:14.75px;"/>
                    </g>
                    <g transform="matrix(1.16976,0,0,1,-236.728,-186.474)">
                        <path d="M1127.94,1227.91C1113.38,1227.91 1101.57,1214.1 1101.57,1197.06C1072.65,1197.06 1026.54,1197.06 997.625,1197.06C997.625,1214.1 985.816,1227.91 971.249,1227.91C971.249,1248.21 971.249,1275.56 971.249,1300.59C971.249,1341.25 989.901,1378.8 1020.11,1398.93C1035.99,1409.51 1049.6,1418.58 1049.6,1418.58C1049.6,1418.58 1063.21,1409.51 1079.09,1398.93C1109.29,1378.8 1127.94,1341.25 1127.94,1300.59L1127.94,1227.91Z" style="fill:white;"/>
                        <clipPath id="_clip1">
                            <path d="M1127.94,1227.91C1113.38,1227.91 1101.57,1214.1 1101.57,1197.06C1072.65,1197.06 1026.54,1197.06 997.625,1197.06C997.625,1214.1 985.816,1227.91 971.249,1227.91C971.249,1248.21 971.249,1275.56 971.249,1300.59C971.249,1341.25 989.901,1378.8 1020.11,1398.93C1035.99,1409.51 1049.6,1418.58 1049.6,1418.58C1049.6,1418.58 1063.21,1409.51 1079.09,1398.93C1109.29,1378.8 1127.94,1341.25 1127.94,1300.59L1127.94,1227.91Z"/>
                        </clipPath>
                        <g clip-path="url(#_clip1)">
                            <g transform="matrix(0.740353,0,0,0.963242,-330.211,932.746)">
                                <rect x="1781.53" y="263.318" width="166.439" height="241.054" style="fill:white;stroke:black;stroke-width:4.38px;"/>
                            </g>
                        </g>
                        <path d="M1127.94,1227.91C1113.38,1227.91 1101.57,1214.1 1101.57,1197.06C1072.65,1197.06 1026.54,1197.06 997.625,1197.06C997.625,1214.1 985.816,1227.91 971.249,1227.91C971.249,1248.21 971.249,1275.56 971.249,1300.59C971.249,1341.25 989.901,1378.8 1020.11,1398.93C1035.99,1409.51 1049.6,1418.58 1049.6,1418.58C1049.6,1418.58 1063.21,1409.51 1079.09,1398.93C1109.29,1378.8 1127.94,1341.25 1127.94,1300.59L1127.94,1227.91Z" style="fill:none;stroke:black;stroke-width:7.38px;"/>
                    </g>
                </g>
            </g>
        </g>
    </g>
</svg>
