<?xml version="1.0" encoding="UTF-8" standalone="no"?>
<!DOCTYPE svg PUBLIC "-//W3C//DTD SVG 1.1//EN" "http://www.w3.org/Graphics/SVG/1.1/DTD/svg11.dtd">
<svg width="100%" height="100%" viewBox="0 0 364 354" version="1.1" xmlns="http://www.w3.org/2000/svg" xmlns:xlink="http://www.w3.org/1999/xlink" xml:space="preserve" xmlns:serif="http://www.serif.com/" style="fill-rule:evenodd;clip-rule:evenodd;stroke-linecap:round;stroke-linejoin:bevel;stroke-miterlimit:1.5;">
    <g transform="matrix(1,0,0,1,-1472,-1979)">
        <g transform="matrix(1,0,0,1,1331.82,868.426)">
            <g transform="matrix(1,0,0,1,609.45,-1819.2)">
                <g transform="matrix(1.17938,0,0,1.17938,-619.621,-386.825)">
                    <rect x="153.268" y="2829.3" width="279.266" height="279.266" style="fill:white;"/>
                    <rect x="153.268" y="2829.3" width="279.266" height="279.266" style="fill:none;stroke:black;stroke-width:7.07px;"/>
                </g>
                <g transform="matrix(1,0,0,1,-2286.99,2385.58)">
                    <g transform="matrix(1,0,0,1,100.479,5.69544e-14)">
                        <rect x="1719.52" y="547.179" width="95.824" height="95.824" style="fill:white;stroke:black;stroke-width:4.17px;stroke-linecap:butt;"/>
                    </g>
                    <g transform="matrix(0.921202,0,0,0.921202,143.112,56.2499)">
                        <path d="M1902.57,568.064L1887.48,552.977L1857.31,552.977L1842.22,568.064L1842.22,598.237L1857.31,613.324L1887.48,613.324L1902.57,598.237L1902.57,568.064Z" style="stroke:white;stroke-width:4.52px;stroke-linecap:butt;"/>
                    </g>
                    <path d="M1873.46,556.832C1873.46,560.614 1876.53,563.685 1880.31,563.685L1880.31,581.107L1897.73,581.107C1897.73,584.889 1900.81,587.96 1904.59,587.96L1904.59,599.06C1900.81,599.06 1897.73,602.131 1897.73,605.913L1880.31,605.913L1880.31,623.335C1876.53,623.335 1873.46,626.406 1873.46,630.188L1862.36,630.188C1862.36,626.406 1859.29,623.335 1855.51,623.335L1855.51,605.913L1838.08,605.913C1838.08,602.131 1835.01,599.06 1831.23,599.06L1831.23,587.96C1835.01,587.96 1838.08,584.889 1838.08,581.107L1855.51,581.107L1855.51,563.685C1859.29,563.685 1862.36,560.614 1862.36,556.832L1873.46,556.832Z" style="fill:white;stroke:black;stroke-width:4.17px;stroke-linecap:butt;"/>
                    <g transform="matrix(0.801533,0,0,0.679141,372.844,192.122)">
                        <path d="M1865.33,581.107L1875.16,600.76L1855.51,600.76L1865.33,581.107Z" style="fill:white;stroke:black;stroke-width:5.61px;stroke-linecap:butt;"/>
                    </g>
                    <g transform="matrix(0.5,0,0,0.5,925.837,273.319)">
                        <path d="M1967.5,577.203C1957.62,577.203 1949.61,569.188 1949.61,559.315C1949.61,569.188 1941.59,577.203 1931.72,577.203C1941.59,577.203 1949.61,585.218 1949.61,595.091C1949.61,585.218 1957.62,577.203 1967.5,577.203Z" style="fill:white;stroke:black;stroke-width:8.33px;stroke-linecap:butt;"/>
                    </g>
                    <g transform="matrix(0.5,0,0,0.5,860.198,273.319)">
                        <path d="M1967.5,577.203C1957.62,577.203 1949.61,569.188 1949.61,559.315C1949.61,569.188 1941.59,577.203 1931.72,577.203C1941.59,577.203 1949.61,585.218 1949.61,595.091C1949.61,585.218 1957.62,577.203 1967.5,577.203Z" style="fill:white;stroke:black;stroke-width:8.33px;stroke-linecap:butt;"/>
                    </g>
                    <g transform="matrix(0.5,0,0,0.5,925.837,339.902)">
                        <path d="M1967.5,577.203C1957.62,577.203 1949.61,569.188 1949.61,559.315C1949.61,569.188 1941.59,577.203 1931.72,577.203C1941.59,577.203 1949.61,585.218 1949.61,595.091C1949.61,585.218 1957.62,577.203 1967.5,577.203Z" style="fill:white;stroke:black;stroke-width:8.33px;stroke-linecap:butt;"/>
                    </g>
                    <g transform="matrix(0.5,0,0,0.5,860.198,339.902)">
                        <path d="M1967.5,577.203C1957.62,577.203 1949.61,569.188 1949.61,559.315C1949.61,569.188 1941.59,577.203 1931.72,577.203C1941.59,577.203 1949.61,585.218 1949.61,595.091C1949.61,585.218 1957.62,577.203 1967.5,577.203Z" style="fill:white;stroke:black;stroke-width:8.33px;stroke-linecap:butt;"/>
                    </g>
                </g>
                <g transform="matrix(0.585869,0,0,0.585869,-551.999,2779.81)">
                    <text x="343.455px" y="390.999px" style="font-family:'GermaniaOne-Regular', 'Germania One', sans-serif;font-size:85.343px;">A</text>
                </g>
                <g transform="matrix(0.418879,0,0,0.418879,-492.52,2904.83)">
                    <text x="343.455px" y="390.999px" style="font-family:'JetBrainsMono-Regular', 'JetBrains Mono', monospace;font-size:85.343px;">I</text>
                </g>
                <g transform="matrix(0.418879,0,0,0.418879,-434.708,2904.83)">
                    <text x="343.455px" y="390.999px" style="font-family:'JetBrainsMono-Regular', 'JetBrains Mono', monospace;font-size:85.343px;">V</text>
                </g>
                <g transform="matrix(0.418879,0,0,0.418879,-370.77,2904.83)">
                    <text x="343.455px" y="390.999px" style="font-family:'JetBrainsMono-Regular', 'JetBrains Mono', monospace;font-size:85.343px;">I</text>
                </g>
                <g transform="matrix(0.418879,0,0,0.418879,-311.606,2904.83)">
                    <text x="343.455px" y="390.999px" style="font-family:'JetBrainsMono-Regular', 'JetBrains Mono', monospace;font-size:85.343px;">V</text>
                </g>
                <g transform="matrix(0.418879,0,0,0.418879,-492.52,2963.42)">
                    <text x="343.455px" y="390.999px" style="font-family:'JetBrainsMono-Regular', 'JetBrains Mono', monospace;font-size:85.343px;">V</text>
                </g>
                <g transform="matrix(0.418879,0,0,0.418879,-434.708,2963.42)">
                    <text x="343.455px" y="390.999px" style="font-family:'JetBrainsMono-Regular', 'JetBrains Mono', monospace;font-size:85.343px;">I</text>
                </g>
                <g transform="matrix(0.418879,0,0,0.418879,-370.753,2963.42)">
                    <text x="343.455px" y="390.999px" style="font-family:'JetBrainsMono-Regular', 'JetBrains Mono', monospace;font-size:85.343px;">*</text>
                </g>
                <g transform="matrix(0.418879,0,0,0.418879,-311.606,2963.42)">
                    <text x="343.455px" y="390.999px" style="font-family:'JetBrainsMono-Regular', 'JetBrains Mono', monospace;font-size:85.343px;">V</text>
                </g>
                <g transform="matrix(0.418879,0,0,0.418879,-492.502,3022)">
                    <text x="343.455px" y="390.999px" style="font-family:'JetBrainsMono-Regular', 'JetBrains Mono', monospace;font-size:85.343px;">*</text>
                </g>
                <g transform="matrix(0.418879,0,0,0.418879,-434.708,3022)">
                    <text x="343.455px" y="390.999px" style="font-family:'JetBrainsMono-Regular', 'JetBrains Mono', monospace;font-size:85.343px;">I</text>
                </g>
                <g transform="matrix(0.418879,0,0,0.418879,-370.77,3022)">
                    <text x="343.455px" y="390.999px" style="font-family:'JetBrainsMono-Regular', 'JetBrains Mono', monospace;font-size:85.343px;">V</text>
                </g>
                <g transform="matrix(0.418879,0,0,0.418879,-311.606,3022)">
                    <text x="343.455px" y="390.999px" style="font-family:'JetBrainsMono-Regular', 'JetBrains Mono', monospace;font-size:85.343px;">I</text>
                </g>
                <g transform="matrix(0.418879,0,0,0.418879,-492.52,3080.59)">
                    <text x="343.455px" y="390.999px" style="font-family:'JetBrainsMono-Regular', 'JetBrains Mono', monospace;font-size:85.343px;">V</text>
                </g>
                <g transform="matrix(0.418879,0,0,0.418879,-434.708,3080.59)">
                    <text x="343.455px" y="390.999px" style="font-family:'JetBrainsMono-Regular', 'JetBrains Mono', monospace;font-size:85.343px;">V</text>
                </g>
                <g transform="matrix(0.418879,0,0,0.418879,-370.77,3080.59)">
                    <text x="343.455px" y="390.999px" style="font-family:'JetBrainsMono-Regular', 'JetBrains Mono', monospace;font-size:85.343px;">I</text>
                </g>
                <g transform="matrix(0.418879,0,0,0.418879,-311.606,3080.59)">
                    <text x="343.455px" y="390.999px" style="font-family:'JetBrainsMono-Regular', 'JetBrains Mono', monospace;font-size:85.343px;">I</text>
                </g>
                <g transform="matrix(0.585869,0,0,0.585869,-612.178,2848.26)">
                    <text x="343.455px" y="390.999px" style="font-family:'GermaniaOne-Regular', 'Germania One', sans-serif;font-size:85.343px;">A</text>
                </g>
                <g transform="matrix(0.585869,0,0,0.585869,-493.687,2779.81)">
                    <text x="343.455px" y="390.999px" style="font-family:'GermaniaOne-Regular', 'Germania One', sans-serif;font-size:85.343px;">D</text>
                </g>
                <g transform="matrix(0.585869,0,0,0.585869,-611.678,2905.71)">
                    <text x="343.455px" y="390.999px" style="font-family:'GermaniaOne-Regular', 'Germania One', sans-serif;font-size:85.343px;">D</text>
                </g>
                <g transform="matrix(0.585869,0,0,0.585869,-431.124,2779.81)">
                    <text x="343.455px" y="390.999px" style="font-family:'GermaniaOne-Regular', 'Germania One', sans-serif;font-size:85.343px;">F</text>
                </g>
                <g transform="matrix(0.585869,0,0,0.585869,-613.053,2963.15)">
                    <text x="343.455px" y="390.999px" style="font-family:'GermaniaOne-Regular', 'Germania One', sans-serif;font-size:85.343px;">F</text>
                </g>
                <g transform="matrix(0.585869,0,0,0.585869,-375.585,2779.81)">
                    <text x="343.455px" y="390.999px" style="font-family:'GermaniaOne-Regular', 'Germania One', sans-serif;font-size:85.343px;">M</text>
                </g>
                <g transform="matrix(0.585869,0,0,0.585869,-616.678,3020.6)">
                    <text x="343.455px" y="390.999px" style="font-family:'GermaniaOne-Regular', 'Germania One', sans-serif;font-size:85.343px;">M</text>
                </g>
                <g transform="matrix(1.0568,0,0,1.04217,32.9744,-188.448)">
                    <path d="M-381.258,3085.49L-156.846,3085.49" style="fill:none;stroke:black;stroke-width:3.97px;stroke-linecap:butt;"/>
                </g>
                <g transform="matrix(1.06229,0,0,1.04758,33.8358,-145.428)">
                    <path d="M-381.258,3085.49L-156.846,3085.49" style="fill:none;stroke:black;stroke-width:1.97px;stroke-linecap:butt;"/>
                </g>
                <g transform="matrix(1.06229,0,0,1.04758,33.8358,-87.1362)">
                    <path d="M-381.258,3085.49L-156.846,3085.49" style="fill:none;stroke:black;stroke-width:1.97px;stroke-linecap:butt;"/>
                </g>
                <g transform="matrix(1.06229,0,0,1.04758,33.8358,-33.2626)">
                    <path d="M-381.258,3085.49L-156.846,3085.49" style="fill:none;stroke:black;stroke-width:1.97px;stroke-linecap:butt;"/>
                </g>
                <g transform="matrix(6.32865e-17,1.03355,-1.04758,6.41459e-17,3041.89,3421.19)">
                    <path d="M-381.258,3085.49L-156.846,3085.49" style="fill:none;stroke:black;stroke-width:2px;stroke-linecap:butt;"/>
                </g>
                <g transform="matrix(6.32865e-17,1.03355,-1.04758,6.41459e-17,2984.26,3421.19)">
                    <path d="M-381.258,3085.49L-156.846,3085.49" style="fill:none;stroke:black;stroke-width:2px;stroke-linecap:butt;"/>
                </g>
                <g transform="matrix(6.32865e-17,1.03355,-1.04758,6.41459e-17,2922.2,3421.19)">
                    <path d="M-381.258,3085.49L-156.846,3085.49" style="fill:none;stroke:black;stroke-width:2px;stroke-linecap:butt;"/>
                </g>
                <g transform="matrix(6.32865e-17,1.03355,-1.03355,6.32865e-17,2819.06,3421.19)">
                    <path d="M-381.258,3085.49L-156.846,3085.49" style="fill:none;stroke:black;stroke-width:4.03px;stroke-linecap:butt;"/>
                </g>
            </g>
        </g>
    </g>
</svg>
