<?xml version="1.0" encoding="UTF-8" standalone="no"?>
<!DOCTYPE svg PUBLIC "-//W3C//DTD SVG 1.1//EN" "http://www.w3.org/Graphics/SVG/1.1/DTD/svg11.dtd">
<svg width="100%" height="100%" viewBox="0 0 900 183" version="1.1" xmlns="http://www.w3.org/2000/svg" xmlns:xlink="http://www.w3.org/1999/xlink" xml:space="preserve" xmlns:serif="http://www.serif.com/" style="fill-rule:evenodd;clip-rule:evenodd;stroke-linejoin:bevel;stroke-miterlimit:1.5;">
    <g transform="matrix(1,0,0,1,-449,-68)">
        <g transform="matrix(1,0,0,1,3,-17.7106)">
            <g transform="matrix(0.912348,0,0,0.912348,35.9898,10.6332)">
                <g transform="matrix(1,0,0,1,-67.8793,0)">
                    <g transform="matrix(0.265618,0,0,1,1203.93,40.4384)">
                        <path d="M1108.26,94.646L488.054,94.646L488.054,236.956L1108.26,236.956L984.78,166.69L1108.26,94.646Z" style="fill:#f8f8ff;"/>
                        <clipPath id="_clip1">
                            <path d="M1108.26,94.646L488.054,94.646L488.054,236.956L1108.26,236.956L984.78,166.69L1108.26,94.646Z"/>
                        </clipPath>
                        <g clip-path="url(#_clip1)">
                            <g transform="matrix(8.82128,0,0,1.48189,-9765,-107.965)">
                                <rect x="1162.31" y="144.085" width="72.391" height="81.253" style="fill:none;stroke:black;stroke-width:2.33px;"/>
                            </g>
                        </g>
                        <path d="M1108.26,94.646L488.054,94.646L488.054,236.956L1108.26,236.956L984.78,166.69L1108.26,94.646Z" style="fill:none;stroke:black;stroke-width:12.48px;"/>
                    </g>
                    <g transform="matrix(1,0,0,1,211.987,0)">
                        <path d="M1188.74,226.708L1121.58,277.395" style="fill:none;stroke:black;stroke-width:9.13px;"/>
                    </g>
                    <g transform="matrix(1,0,0,1,208.59,-10.9949)">
                        <path d="M1188.74,226.708L1121.58,277.395" style="fill:none;stroke:black;stroke-width:4.57px;"/>
                    </g>
                </g>
                <g transform="matrix(1.71957,0,0,1,-384.332,-7.4049)">
                    <rect x="488.054" y="94.646" width="508.363" height="142.31" style="fill:#f8f8ff;stroke:black;stroke-width:6.49px;"/>
                </g>
                <g transform="matrix(1.69059,0,0,0.794571,-355.456,26.6555)">
                    <path d="M996.417,94.646L494.795,94.646L494.795,108.989L488.054,108.989L488.054,222.613L494.795,222.613L494.795,236.956L996.417,236.956L996.417,94.646Z" style="fill:none;stroke:black;stroke-width:3.46px;"/>
                </g>
            </g>
        </g>
    </g>
</svg>
