<?xml version="1.0" encoding="UTF-8" standalone="no"?>
<!DOCTYPE svg PUBLIC "-//W3C//DTD SVG 1.1//EN" "http://www.w3.org/Graphics/SVG/1.1/DTD/svg11.dtd">
<svg width="100%" height="100%" viewBox="0 0 249 122" version="1.1" xmlns="http://www.w3.org/2000/svg" xmlns:xlink="http://www.w3.org/1999/xlink" xml:space="preserve" xmlns:serif="http://www.serif.com/" style="fill-rule:evenodd;clip-rule:evenodd;stroke-linejoin:bevel;stroke-miterlimit:1.5;">
    <g transform="matrix(1,0,0,1,-3090,-496)">
        <g transform="matrix(1,0,0,1,2691.17,-914.815)">
            <g transform="matrix(1,0,0,1,-33.4709,0)">
                <g transform="matrix(1.62166,-1.4759e-16,1.8004e-16,1.32938,-4360.38,1105.58)">
                    <path d="M3104.09,244.857C3102.15,244.857 3100.3,243.921 3098.93,242.254C3097.57,240.588 3096.8,238.328 3096.8,235.972L3025.15,235.972L3025.15,314.908L3096.8,314.908C3096.8,312.551 3097.57,310.292 3098.93,308.625C3100.3,306.959 3102.15,306.023 3104.09,306.023L3104.09,244.857Z" style="fill:white;stroke:black;stroke-width:2.81px;"/>
                </g>
                <g transform="matrix(1.32938,-1.4759e-16,1.4759e-16,1.32938,-3581.09,1105.58)">
                    <path d="M3104.09,235.972L3034.03,235.972C3034.03,238.328 3033.1,240.588 3031.43,242.254C3029.76,243.921 3027.51,244.857 3025.15,244.857L3025.15,306.023C3027.51,306.023 3029.76,306.959 3031.43,308.625C3033.1,310.292 3034.03,312.551 3034.03,314.908L3104.09,314.908C3104.09,314.908 3115.4,301.217 3124.71,289.963L3124.71,260.917C3115.4,249.662 3104.09,235.972 3104.09,235.972Z" style="fill:white;stroke:black;stroke-width:3.13px;"/>
                </g>
                <g transform="matrix(1.32717,0,0,1.2634,-3494.86,771.548)">
                    <path d="M3145.84,515.117L3138.33,515.117L3138.33,507.224L2967.58,507.224L2967.58,515.117L2960.06,515.117L2960.06,593.316L2967.58,593.316L2967.58,601.209L3138.33,601.209L3138.33,593.316L3145.84,593.316L3145.84,515.117Z" style="fill:none;stroke:black;stroke-width:1.61px;"/>
                </g>
            </g>
        </g>
    </g>
</svg>
